# xmcd CD database file
#
# Track frame offsets:
#	150
#	51598
#	75269
#	122421
#	147027
#	179897
#	212804
#	244125
#	279993
#
# Disc length: 4440 seconds
#
# Revision: 0
# Processed by: cddbd v1.5.2PL0 Copyright (c) Steve Scherf et al.
# Submitted via: CDex 1.51
#
DISCID=80115609
DTITLE=Relaxation  - Un Invitation Au Bien-Etre - CD 3 - Soirée Bien-Etre
DYEAR=2007
DGENRE=New Age
TTITLE0=La Danse Du Souffle De Vie - Expansion Et Gratitude
TTITLE1=PléNitude 
TTITLE2=Immerlachp 5 
TTITLE3=Immeranx 1
TTITLE4=Moment Of Peace 
TTITLE5=Immermatern 4 
TTITLE6=L'Amour Des Sens 
TTITLE7=I Got The Feeling With You 
TTITLE8=Immerstress 2 
EXTD=YEAR: 2007
EXTT0=
EXTT1=
EXTT2=
EXTT3=
EXTT4=
EXTT5=
EXTT6=
EXTT7=
EXTT8=
PLAYORDER=
